<svg width="1508" height="800" viewBox="0 0 1508 800" fill="none" xmlns="http://www.w3.org/2000/svg">
<rect width="1508" height="800" fill="#001B23"/>
<path d="M950.875 121.011L930.989 101.125L557.125 474.989L577.011 494.875L605.136 466.75H894.625C902.081 466.74 909.229 463.774 914.501 458.501C919.774 453.229 922.74 446.081 922.75 438.625V149.136L950.875 121.011ZM894.625 438.625H633.261L742.848 329.036L776.3 362.486C781.575 367.761 788.728 370.724 796.188 370.724C803.647 370.724 810.8 367.761 816.075 362.486L838.375 340.188L894.625 396.4V438.625ZM894.625 356.615L858.262 320.251C852.988 314.977 845.834 312.014 838.375 312.014C830.916 312.014 823.762 314.977 818.488 320.251L796.188 342.553L762.761 309.125L894.625 177.261V356.615Z" fill="#008080"/>
<path d="M613.375 382.375V340.188L683.688 269.923L703 289.235L722.911 269.322L703.575 249.986C698.3 244.712 691.147 241.749 683.688 241.749C676.228 241.749 669.075 244.712 663.8 249.986L613.375 300.413V157.375H838.375V129.25H613.375C605.918 129.257 598.769 132.223 593.496 137.496C588.223 142.769 585.257 149.918 585.25 157.375V382.375H613.375Z" fill="#008080"/>
<path d="M502.28 701V619.4H515.48C521.8 627.64 527.8 636.36 533.48 645.56C539.16 654.68 544.32 664.08 548.96 673.76L547.88 649.4V619.4H561.68V701H548.48C543.36 690.92 538.04 680.8 532.52 670.64C527.08 660.4 521.28 650.76 515.12 641.72L516.08 669.8V701H502.28ZM641.914 651.56V668.72C641.914 679.12 639.314 687.32 634.114 693.32C628.914 699.24 621.314 702.2 611.314 702.2C601.234 702.2 593.594 699.24 588.394 693.32C583.274 687.32 580.714 679.12 580.714 668.72V651.56C580.714 641.16 583.274 633 588.394 627.08C593.594 621.16 601.234 618.2 611.314 618.2C621.314 618.2 628.914 621.16 634.114 627.08C639.314 633 641.914 641.16 641.914 651.56ZM627.154 651.56C627.154 645 625.874 640.08 623.314 636.8C620.754 633.44 616.754 631.76 611.314 631.76C605.874 631.76 601.874 633.44 599.314 636.8C596.754 640.08 595.474 645 595.474 651.56V668.72C595.474 675.28 596.754 680.24 599.314 683.6C601.874 686.96 605.874 688.64 611.314 688.64C616.754 688.64 620.754 686.96 623.314 683.6C625.874 680.24 627.154 675.28 627.154 668.72V651.56ZM699.375 701H684.975V619.4H699.375V701ZM737.609 619.4L760.409 675.2L783.089 619.4H798.809V701H785.009V669.8L786.809 641.24L766.529 691.4H753.689L733.889 641.12L735.689 669.8V701H721.889V619.4H737.609ZM864.822 701L859.782 685.04H831.822L826.782 701H812.502L839.742 619.4H852.462L879.822 701H864.822ZM839.622 660.08L835.902 671.84H855.582L851.862 660.08L845.862 639.44L839.622 660.08ZM945.108 695.72C943.108 696.92 939.788 698.32 935.148 699.92C930.588 701.44 925.228 702.2 919.068 702.2C912.108 702.2 906.268 700.76 901.548 697.88C896.908 695 893.388 691.04 890.988 686C888.588 680.96 887.388 675.2 887.388 668.72V651.56C887.388 644.92 888.588 639.12 890.988 634.16C893.388 629.12 896.948 625.2 901.668 622.4C906.468 619.6 912.468 618.2 919.668 618.2C923.188 618.2 926.828 618.6 930.588 619.4C934.348 620.12 938.468 621.48 942.948 623.48L938.508 636.08C934.588 634.56 931.188 633.48 928.308 632.84C925.508 632.12 922.708 631.76 919.908 631.76C913.668 631.76 909.148 633.56 906.348 637.16C903.548 640.68 902.148 645.48 902.148 651.56V668.72C902.148 674.48 903.548 679.2 906.348 682.88C909.228 686.56 913.708 688.4 919.788 688.4C921.628 688.4 923.628 688.24 925.788 687.92C927.948 687.6 930.028 687.16 932.028 686.6V668.72H918.828V656.12H945.108V695.72ZM1010.69 687.2V701H963.413V619.4H1009.49V633.2H977.813V652.76H1005.89V666.56H977.813V687.2H1010.69Z" fill="#008080"/>
</svg>
